<svg xmlns="http://www.w3.org/2000/svg" xmlns:xlink="http://www.w3.org/1999/xlink" width="311" zoomAndPan="magnify" viewBox="0 0 233.25 84.749997" height="113" preserveAspectRatio="xMidYMid meet" version="1.0"><defs><g/><clipPath id="f2b2fb0466"><path d="M 0.347656 1 L 77.347656 1 L 77.347656 84.375 L 0.347656 84.375 Z M 0.347656 1 " clip-rule="nonzero"/></clipPath></defs><g clip-path="url(#f2b2fb0466)"><path fill="#38b6ff" d="M 56.605469 32.691406 C 56.667969 32.902344 56.683594 33.121094 56.652344 33.34375 C 56.625 33.5625 56.558594 33.769531 56.449219 33.964844 C 56.335938 34.15625 56.195312 34.320312 56.019531 34.457031 C 55.84375 34.59375 55.648438 34.691406 55.433594 34.75 C 51.230469 35.402344 47.394531 36.949219 43.917969 39.394531 C 43.699219 39.523438 43.464844 39.597656 43.210938 39.617188 C 42.960938 39.640625 42.714844 39.605469 42.480469 39.515625 C 42.242188 39.429688 42.035156 39.292969 41.859375 39.109375 C 41.683594 38.929688 41.558594 38.71875 41.476562 38.476562 C 41.363281 38.101562 41.378906 37.730469 41.515625 37.359375 C 41.652344 36.992188 41.890625 36.703125 42.222656 36.496094 C 45.949219 33.886719 50.054688 32.226562 54.542969 31.511719 C 54.757812 31.460938 54.972656 31.449219 55.191406 31.480469 C 55.410156 31.511719 55.617188 31.582031 55.808594 31.691406 C 56 31.800781 56.164062 31.941406 56.300781 32.113281 C 56.4375 32.285156 56.539062 32.476562 56.601562 32.6875 Z M 56.605469 23.417969 C 56.542969 23.207031 56.441406 23.015625 56.304688 22.839844 C 56.167969 22.667969 56.003906 22.527344 55.8125 22.417969 C 55.621094 22.308594 55.414062 22.238281 55.195312 22.207031 C 54.976562 22.179688 54.761719 22.1875 54.546875 22.242188 C 50.058594 22.957031 45.953125 24.617188 42.226562 27.222656 C 41.894531 27.433594 41.660156 27.71875 41.519531 28.089844 C 41.382812 28.457031 41.371094 28.828125 41.480469 29.207031 C 41.5625 29.445312 41.6875 29.65625 41.863281 29.839844 C 42.039062 30.023438 42.246094 30.15625 42.480469 30.246094 C 42.71875 30.335938 42.960938 30.371094 43.214844 30.347656 C 43.464844 30.328125 43.699219 30.253906 43.917969 30.128906 C 47.398438 27.6875 51.234375 26.136719 55.433594 25.480469 C 55.648438 25.421875 55.84375 25.328125 56.019531 25.191406 C 56.195312 25.054688 56.339844 24.890625 56.449219 24.695312 C 56.558594 24.503906 56.628906 24.296875 56.65625 24.074219 C 56.683594 23.855469 56.667969 23.636719 56.609375 23.421875 Z M 56.605469 14.148438 C 56.542969 13.9375 56.441406 13.746094 56.304688 13.574219 C 56.167969 13.398438 56.003906 13.257812 55.8125 13.148438 C 55.621094 13.039062 55.414062 12.972656 55.195312 12.941406 C 54.976562 12.910156 54.761719 12.921875 54.546875 12.972656 C 50.058594 13.6875 45.953125 15.347656 42.226562 17.953125 C 41.894531 18.164062 41.660156 18.453125 41.519531 18.820312 C 41.382812 19.1875 41.371094 19.5625 41.480469 19.9375 C 41.5625 20.175781 41.6875 20.386719 41.863281 20.570312 C 42.039062 20.753906 42.246094 20.890625 42.480469 20.976562 C 42.71875 21.066406 42.960938 21.101562 43.214844 21.082031 C 43.464844 21.058594 43.699219 20.984375 43.917969 20.859375 C 47.398438 18.417969 51.234375 16.871094 55.433594 16.222656 C 55.648438 16.164062 55.84375 16.066406 56.019531 15.929688 C 56.195312 15.789062 56.339844 15.625 56.449219 15.429688 C 56.558594 15.238281 56.628906 15.03125 56.65625 14.808594 C 56.683594 14.585938 56.667969 14.367188 56.609375 14.152344 Z M 18.425781 16.222656 C 22.625 16.871094 26.460938 18.414062 29.941406 20.859375 C 30.132812 20.96875 30.339844 21.039062 30.558594 21.070312 C 30.78125 21.101562 30.996094 21.085938 31.210938 21.03125 C 31.425781 20.972656 31.625 20.878906 31.800781 20.742188 C 31.976562 20.609375 32.121094 20.445312 32.234375 20.253906 C 32.539062 19.742188 32.550781 19.21875 32.277344 18.691406 C 32.125 18.390625 31.90625 18.144531 31.628906 17.953125 C 27.902344 15.347656 23.796875 13.6875 19.308594 12.972656 C 19.007812 12.886719 18.710938 12.886719 18.410156 12.96875 C 18.113281 13.054688 17.855469 13.207031 17.644531 13.433594 C 17.429688 13.660156 17.292969 13.925781 17.230469 14.230469 C 17.164062 14.53125 17.183594 14.832031 17.289062 15.125 C 17.359375 15.398438 17.496094 15.636719 17.703125 15.832031 C 17.90625 16.03125 18.148438 16.160156 18.425781 16.222656 Z M 18.425781 34.75 C 22.625 35.402344 26.464844 36.949219 29.941406 39.394531 C 30.132812 39.507812 30.339844 39.578125 30.558594 39.609375 C 30.78125 39.636719 30.996094 39.625 31.210938 39.566406 C 31.425781 39.511719 31.625 39.414062 31.800781 39.28125 C 31.976562 39.144531 32.121094 38.984375 32.234375 38.789062 C 32.539062 38.277344 32.554688 37.753906 32.277344 37.222656 C 32.125 36.921875 31.90625 36.675781 31.628906 36.484375 C 27.902344 33.878906 23.796875 32.21875 19.308594 31.503906 C 19.007812 31.417969 18.707031 31.417969 18.40625 31.5 C 18.105469 31.582031 17.851562 31.738281 17.636719 31.964844 C 17.425781 32.195312 17.285156 32.460938 17.222656 32.765625 C 17.160156 33.070312 17.183594 33.371094 17.289062 33.664062 C 17.359375 33.9375 17.5 34.171875 17.703125 34.367188 C 17.90625 34.5625 18.148438 34.691406 18.425781 34.75 Z M 18.425781 25.480469 C 22.625 26.136719 26.460938 27.6875 29.941406 30.125 C 30.132812 30.238281 30.339844 30.308594 30.558594 30.339844 C 30.78125 30.367188 30.996094 30.355469 31.210938 30.296875 C 31.425781 30.242188 31.625 30.144531 31.800781 30.011719 C 31.976562 29.878906 32.121094 29.714844 32.234375 29.523438 C 32.539062 29.007812 32.550781 28.488281 32.277344 27.960938 C 32.125 27.660156 31.90625 27.410156 31.628906 27.222656 C 27.902344 24.613281 23.796875 22.953125 19.308594 22.238281 C 19.007812 22.15625 18.710938 22.15625 18.410156 22.238281 C 18.113281 22.320312 17.855469 22.476562 17.644531 22.703125 C 17.429688 22.929688 17.292969 23.191406 17.230469 23.496094 C 17.164062 23.800781 17.183594 24.097656 17.289062 24.390625 C 17.359375 24.664062 17.496094 24.902344 17.703125 25.097656 C 17.90625 25.292969 18.148438 25.421875 18.425781 25.480469 Z M 77.277344 63.09375 L 77.277344 71.613281 C 77.273438 72.0625 77.1875 72.492188 77.015625 72.910156 C 76.84375 73.324219 76.597656 73.691406 76.28125 74.007812 C 75.964844 74.328125 75.597656 74.570312 75.179688 74.746094 C 74.765625 74.917969 74.335938 75.003906 73.882812 75.003906 L 72.160156 75.003906 L 72.160156 80.535156 C 72.160156 81.042969 72.0625 81.53125 71.867188 82.003906 C 71.671875 82.472656 71.394531 82.886719 71.035156 83.246094 C 70.675781 83.605469 70.261719 83.882812 69.789062 84.078125 C 69.320312 84.273438 68.832031 84.371094 68.324219 84.375 L 4.246094 84.375 C 3.738281 84.371094 3.25 84.273438 2.777344 84.078125 C 2.308594 83.882812 1.894531 83.605469 1.535156 83.246094 C 1.175781 82.886719 0.898438 82.472656 0.703125 82 C 0.507812 81.53125 0.410156 81.042969 0.410156 80.53125 L 0.410156 72.898438 C 0.410156 72.390625 0.507812 71.898438 0.703125 71.429688 C 0.898438 70.960938 1.175781 70.546875 1.535156 70.183594 C 1.894531 69.824219 2.308594 69.546875 2.78125 69.351562 C 3.25 69.15625 3.738281 69.058594 4.246094 69.058594 L 5.523438 69.058594 L 5.523438 63.09375 C 5.523438 62.644531 5.609375 62.210938 5.78125 61.796875 C 5.953125 61.378906 6.199219 61.011719 6.515625 60.695312 C 6.835938 60.378906 7.203125 60.132812 7.617188 59.960938 C 8.03125 59.789062 8.464844 59.703125 8.914062 59.699219 L 22.675781 59.699219 C 16.589844 58.027344 10.394531 57.347656 4.089844 57.652344 C 3.507812 57.820312 2.972656 57.726562 2.480469 57.371094 C 2.046875 57.046875 1.839844 56.613281 1.851562 56.074219 L 1.851562 12.113281 C 1.835938 11.554688 2.054688 11.109375 2.511719 10.78125 C 3.019531 10.449219 3.566406 10.371094 4.144531 10.546875 C 6.332031 10.410156 8.511719 10.484375 10.679688 10.761719 L 10.679688 2.96875 C 10.679688 2.753906 10.71875 2.546875 10.800781 2.347656 C 10.882812 2.148438 10.996094 1.972656 11.148438 1.816406 C 11.300781 1.664062 11.472656 1.546875 11.671875 1.460938 C 11.871094 1.378906 12.078125 1.335938 12.292969 1.335938 C 14.527344 1.152344 16.753906 1.1875 18.980469 1.433594 C 21.207031 1.675781 23.390625 2.132812 25.53125 2.796875 C 27.667969 3.457031 29.726562 4.320312 31.699219 5.375 C 33.675781 6.433594 35.53125 7.667969 37.269531 9.082031 C 39.007812 7.671875 40.859375 6.4375 42.832031 5.378906 C 44.804688 4.320312 46.859375 3.460938 48.992188 2.796875 C 51.128906 2.132812 53.308594 1.675781 55.53125 1.429688 C 57.757812 1.179688 59.984375 1.144531 62.214844 1.324219 C 62.429688 1.328125 62.640625 1.371094 62.839844 1.453125 C 63.039062 1.539062 63.21875 1.65625 63.371094 1.8125 C 63.527344 1.964844 63.644531 2.140625 63.730469 2.34375 C 63.8125 2.542969 63.855469 2.753906 63.859375 2.96875 L 63.859375 10.75 C 66.023438 10.480469 68.195312 10.414062 70.371094 10.546875 C 70.957031 10.371094 71.503906 10.449219 72.015625 10.78125 C 72.476562 11.109375 72.699219 11.550781 72.6875 12.113281 L 72.6875 56.074219 C 72.695312 56.617188 72.484375 57.046875 72.050781 57.371094 C 71.546875 57.730469 70.996094 57.820312 70.40625 57.640625 C 64.070312 57.320312 57.851562 58.007812 51.738281 59.699219 L 73.882812 59.699219 C 74.335938 59.703125 74.765625 59.789062 75.179688 59.960938 C 75.597656 60.132812 75.964844 60.378906 76.28125 60.695312 C 76.597656 61.011719 76.84375 61.378906 77.015625 61.796875 C 77.1875 62.210938 77.273438 62.644531 77.277344 63.09375 Z M 39.015625 51.742188 C 42.125 49.515625 45.511719 47.84375 49.167969 46.730469 C 52.824219 45.613281 56.566406 45.109375 60.390625 45.214844 L 60.390625 4.683594 C 58.457031 4.628906 56.535156 4.75 54.625 5.042969 C 52.714844 5.339844 50.847656 5.804688 49.023438 6.441406 C 47.195312 7.074219 45.441406 7.867188 43.761719 8.824219 C 42.078125 9.777344 40.496094 10.875 39.015625 12.113281 Z M 14.140625 45.214844 C 14.496094 45.203125 14.867188 45.191406 15.226562 45.191406 C 18.863281 45.207031 22.414062 45.773438 25.878906 46.890625 C 29.339844 48.007812 32.550781 49.625 35.511719 51.742188 L 35.511719 12.113281 C 34.03125 10.875 32.449219 9.777344 30.765625 8.824219 C 29.085938 7.875 27.332031 7.078125 25.503906 6.445312 C 23.679688 5.808594 21.8125 5.34375 19.902344 5.046875 C 17.992188 4.75 16.070312 4.628906 14.140625 4.683594 Z M 32.691406 59.699219 C 34.265625 60.472656 35.792969 61.324219 37.269531 62.265625 C 38.75 61.324219 40.28125 60.46875 41.859375 59.699219 C 46.121094 57.664062 50.566406 56.175781 55.195312 55.230469 C 59.824219 54.289062 64.5 53.921875 69.21875 54.125 L 69.21875 13.964844 C 67.421875 13.917969 65.636719 14.019531 63.859375 14.265625 L 63.847656 47.03125 C 63.894531 47.542969 63.742188 47.988281 63.386719 48.363281 C 63.039062 48.695312 62.625 48.832031 62.144531 48.777344 C 60.019531 48.589844 57.890625 48.617188 55.769531 48.859375 C 53.648438 49.105469 51.570312 49.558594 49.539062 50.226562 C 47.511719 50.890625 45.566406 51.753906 43.710938 52.816406 C 41.855469 53.875 40.128906 55.109375 38.523438 56.523438 C 38.167969 56.859375 37.746094 57.003906 37.257812 56.960938 C 36.777344 56.992188 36.359375 56.847656 36.003906 56.523438 C 34.402344 55.109375 32.675781 53.875 30.820312 52.8125 C 28.964844 51.753906 27.023438 50.890625 24.996094 50.222656 C 22.964844 49.558594 20.890625 49.105469 18.769531 48.859375 C 16.644531 48.617188 14.519531 48.589844 12.394531 48.777344 C 11.914062 48.835938 11.5 48.695312 11.152344 48.363281 C 10.792969 47.988281 10.636719 47.546875 10.679688 47.03125 L 10.679688 14.265625 C 8.898438 14.019531 7.109375 13.917969 5.308594 13.960938 L 5.308594 54.125 C 6.105469 54.09375 6.910156 54.082031 7.695312 54.082031 C 12.019531 54.058594 16.292969 54.523438 20.511719 55.472656 C 24.730469 56.421875 28.792969 57.832031 32.691406 59.699219 Z M 69.183594 75.003906 L 8.914062 75.003906 C 8.5 75.003906 8.101562 74.929688 7.714844 74.78125 C 7.332031 74.636719 6.984375 74.425781 6.675781 74.152344 C 6.367188 73.882812 6.113281 73.5625 5.921875 73.199219 C 5.730469 72.832031 5.609375 72.445312 5.554688 72.035156 L 4.246094 72.035156 C 4.011719 72.039062 3.808594 72.125 3.640625 72.292969 C 3.472656 72.457031 3.386719 72.660156 3.386719 72.898438 L 3.386719 80.53125 C 3.390625 80.769531 3.476562 80.96875 3.640625 81.136719 C 3.808594 81.304688 4.011719 81.390625 4.246094 81.394531 L 68.324219 81.394531 C 68.558594 81.390625 68.761719 81.304688 68.929688 81.136719 C 69.09375 80.96875 69.179688 80.769531 69.183594 80.53125 Z M 74.296875 63.09375 C 74.296875 62.980469 74.257812 62.882812 74.175781 62.800781 C 74.09375 62.722656 74 62.679688 73.882812 62.679688 L 44.007812 62.679688 C 42.351562 63.492188 40.753906 64.410156 39.21875 65.433594 C 39.039062 65.554688 38.847656 65.679688 38.667969 65.800781 C 38.25 66.097656 37.78125 66.242188 37.269531 66.238281 C 36.761719 66.238281 36.292969 66.09375 35.871094 65.8125 C 35.691406 65.6875 35.5 65.554688 35.3125 65.433594 C 33.761719 64.410156 32.148438 63.492188 30.476562 62.679688 L 8.914062 62.679688 C 8.796875 62.675781 8.699219 62.71875 8.617188 62.796875 C 8.535156 62.878906 8.492188 62.976562 8.488281 63.09375 L 8.488281 71.613281 C 8.492188 71.726562 8.535156 71.824219 8.617188 71.90625 C 8.699219 71.988281 8.796875 72.027344 8.914062 72.027344 L 73.882812 72.027344 C 74 72.023438 74.09375 71.984375 74.175781 71.902344 C 74.257812 71.824219 74.296875 71.726562 74.296875 71.613281 Z M 74.296875 63.09375 " fill-opacity="1" fill-rule="nonzero"/></g><g fill="#ffffff" fill-opacity="1"><g transform="translate(87.911369, 33.475034)"><g><path d="M 2.015625 -20.078125 L 11.5 -20.078125 C 13.757812 -20.078125 15.550781 -19.625 16.875 -18.71875 C 18.207031 -17.8125 18.875 -16.59375 18.875 -15.0625 C 18.875 -14.007812 18.566406 -13.085938 17.953125 -12.296875 C 17.347656 -11.503906 16.507812 -10.953125 15.4375 -10.640625 C 16.695312 -10.390625 17.695312 -9.804688 18.4375 -8.890625 C 19.1875 -7.972656 19.5625 -6.863281 19.5625 -5.5625 C 19.5625 -3.863281 18.867188 -2.507812 17.484375 -1.5 C 16.097656 -0.5 14.21875 0 11.84375 0 L 2.015625 0 Z M 7.078125 -16.1875 L 7.078125 -12.046875 L 11.21875 -12.046875 C 11.957031 -12.046875 12.546875 -12.234375 12.984375 -12.609375 C 13.429688 -12.984375 13.65625 -13.492188 13.65625 -14.140625 C 13.65625 -14.773438 13.429688 -15.273438 12.984375 -15.640625 C 12.546875 -16.003906 11.957031 -16.1875 11.21875 -16.1875 Z M 7.078125 -8.375 L 7.078125 -3.9375 L 11.21875 -3.9375 C 12.175781 -3.9375 12.925781 -4.132812 13.46875 -4.53125 C 14.007812 -4.9375 14.28125 -5.492188 14.28125 -6.203125 C 14.28125 -6.867188 14.007812 -7.394531 13.46875 -7.78125 C 12.925781 -8.175781 12.175781 -8.375 11.21875 -8.375 Z M 7.078125 -8.375 "/></g></g></g><g fill="#ffffff" fill-opacity="1"><g transform="translate(109.849948, 33.475034)"><g><path d="M 11.53125 -20.25 C 14.644531 -20.25 17.234375 -19.28125 19.296875 -17.34375 C 21.367188 -15.40625 22.40625 -12.976562 22.40625 -10.0625 C 22.40625 -7.144531 21.367188 -4.695312 19.296875 -2.71875 C 17.222656 -0.75 14.632812 0.234375 11.53125 0.234375 C 8.4375 0.234375 5.851562 -0.742188 3.78125 -2.703125 C 1.71875 -4.671875 0.6875 -7.125 0.6875 -10.0625 C 0.6875 -12.988281 1.71875 -15.414062 3.78125 -17.34375 C 5.851562 -19.28125 8.4375 -20.25 11.53125 -20.25 Z M 11.59375 -15.984375 C 10.019531 -15.984375 8.675781 -15.410156 7.5625 -14.265625 C 6.457031 -13.128906 5.90625 -11.71875 5.90625 -10.03125 C 5.90625 -8.351562 6.460938 -6.9375 7.578125 -5.78125 C 8.703125 -4.625 10.035156 -4.046875 11.578125 -4.046875 C 13.128906 -4.046875 14.445312 -4.625 15.53125 -5.78125 C 16.613281 -6.9375 17.15625 -8.351562 17.15625 -10.03125 C 17.15625 -11.71875 16.613281 -13.128906 15.53125 -14.265625 C 14.445312 -15.410156 13.132812 -15.984375 11.59375 -15.984375 Z M 11.59375 -15.984375 "/></g></g></g><g fill="#ffffff" fill-opacity="1"><g transform="translate(134.369489, 33.475034)"><g><path d="M 11.53125 -20.25 C 14.644531 -20.25 17.234375 -19.28125 19.296875 -17.34375 C 21.367188 -15.40625 22.40625 -12.976562 22.40625 -10.0625 C 22.40625 -7.144531 21.367188 -4.695312 19.296875 -2.71875 C 17.222656 -0.75 14.632812 0.234375 11.53125 0.234375 C 8.4375 0.234375 5.851562 -0.742188 3.78125 -2.703125 C 1.71875 -4.671875 0.6875 -7.125 0.6875 -10.0625 C 0.6875 -12.988281 1.71875 -15.414062 3.78125 -17.34375 C 5.851562 -19.28125 8.4375 -20.25 11.53125 -20.25 Z M 11.59375 -15.984375 C 10.019531 -15.984375 8.675781 -15.410156 7.5625 -14.265625 C 6.457031 -13.128906 5.90625 -11.71875 5.90625 -10.03125 C 5.90625 -8.351562 6.460938 -6.9375 7.578125 -5.78125 C 8.703125 -4.625 10.035156 -4.046875 11.578125 -4.046875 C 13.128906 -4.046875 14.445312 -4.625 15.53125 -5.78125 C 16.613281 -6.9375 17.15625 -8.351562 17.15625 -10.03125 C 17.15625 -11.71875 16.613281 -13.128906 15.53125 -14.265625 C 14.445312 -15.410156 13.132812 -15.984375 11.59375 -15.984375 Z M 11.59375 -15.984375 "/></g></g></g><g fill="#ffffff" fill-opacity="1"><g transform="translate(158.889031, 33.475034)"><g><path d="M 15.09375 0 L 9.78125 -7.890625 L 7.109375 -4.9375 L 7.109375 0 L 2.015625 0 L 2.015625 -20.078125 L 7.109375 -20.078125 L 7.109375 -11.390625 L 14.796875 -20.078125 L 20.71875 -20.078125 L 13.25 -11.765625 L 21.203125 0 Z M 15.09375 0 "/></g></g></g><g fill="#ffffff" fill-opacity="1"><g transform="translate(181.745291, 33.475034)"><g><path d="M 7.109375 0 L 2.015625 0 L 2.015625 -20.078125 L 7.109375 -20.078125 Z M 7.109375 0 "/></g></g></g><g fill="#ffffff" fill-opacity="1"><g transform="translate(192.298961, 33.475034)"><g><path d="M 16.890625 -16.0625 L 7.109375 -16.0625 L 7.109375 -11.421875 L 16.125 -11.421875 L 16.125 -7.40625 L 7.109375 -7.40625 L 7.109375 0 L 2.015625 0 L 2.015625 -20.078125 L 16.890625 -20.078125 Z M 16.890625 -16.0625 "/></g></g></g><g fill="#ffffff" fill-opacity="1"><g transform="translate(211.054354, 33.475034)"><g><path d="M 12.359375 -6.484375 L 12.359375 0 L 7.28125 0 L 7.28125 -6.34375 L -0.140625 -20.078125 L 4.96875 -20.078125 L 9.8125 -11.328125 L 14.546875 -20.078125 L 19.65625 -20.078125 Z M 12.359375 -6.484375 "/></g></g></g><g fill="#ffde59" fill-opacity="1"><g transform="translate(87.911369, 73.097629)"><g><path d="M 11.53125 -20.25 C 14.644531 -20.25 17.234375 -19.28125 19.296875 -17.34375 C 21.367188 -15.40625 22.40625 -12.976562 22.40625 -10.0625 C 22.40625 -7.144531 21.367188 -4.695312 19.296875 -2.71875 C 17.222656 -0.75 14.632812 0.234375 11.53125 0.234375 C 8.4375 0.234375 5.851562 -0.742188 3.78125 -2.703125 C 1.71875 -4.671875 0.6875 -7.125 0.6875 -10.0625 C 0.6875 -12.988281 1.71875 -15.414062 3.78125 -17.34375 C 5.851562 -19.28125 8.4375 -20.25 11.53125 -20.25 Z M 11.59375 -15.984375 C 10.019531 -15.984375 8.675781 -15.410156 7.5625 -14.265625 C 6.457031 -13.128906 5.90625 -11.71875 5.90625 -10.03125 C 5.90625 -8.351562 6.460938 -6.9375 7.578125 -5.78125 C 8.703125 -4.625 10.035156 -4.046875 11.578125 -4.046875 C 13.128906 -4.046875 14.445312 -4.625 15.53125 -5.78125 C 16.613281 -6.9375 17.15625 -8.351562 17.15625 -10.03125 C 17.15625 -11.71875 16.613281 -13.128906 15.53125 -14.265625 C 14.445312 -15.410156 13.132812 -15.984375 11.59375 -15.984375 Z M 11.59375 -15.984375 "/></g></g></g><g fill="#ffde59" fill-opacity="1"><g transform="translate(112.43091, 73.097629)"><g><path d="M 20.546875 0 L 16.03125 0 L 6.796875 -12.359375 L 6.796875 0 L 2.015625 0 L 2.015625 -20.078125 L 6.515625 -20.078125 L 15.78125 -7.6875 L 15.78125 -20.078125 L 20.546875 -20.078125 Z M 20.546875 0 "/></g></g></g><g fill="#ffde59" fill-opacity="1"><g transform="translate(136.405587, 73.097629)"><g><path d="M 7.109375 -4.28125 L 15.640625 -4.28125 L 15.640625 0 L 2.015625 0 L 2.015625 -20.078125 L 7.109375 -20.078125 Z M 7.109375 -4.28125 "/></g></g></g><g fill="#ffde59" fill-opacity="1"><g transform="translate(153.899178, 73.097629)"><g><path d="M 7.109375 0 L 2.015625 0 L 2.015625 -20.078125 L 7.109375 -20.078125 Z M 7.109375 0 "/></g></g></g><g fill="#ffde59" fill-opacity="1"><g transform="translate(164.452853, 73.097629)"><g><path d="M 20.546875 0 L 16.03125 0 L 6.796875 -12.359375 L 6.796875 0 L 2.015625 0 L 2.015625 -20.078125 L 6.515625 -20.078125 L 15.78125 -7.6875 L 15.78125 -20.078125 L 20.546875 -20.078125 Z M 20.546875 0 "/></g></g></g><g fill="#ffde59" fill-opacity="1"><g transform="translate(188.427525, 73.097629)"><g><path d="M 17.734375 -16.0625 L 7.109375 -16.0625 L 7.109375 -12.078125 L 16.703125 -12.078125 L 16.703125 -8.0625 L 7.109375 -8.0625 L 7.109375 -4.015625 L 18.046875 -4.015625 L 18.046875 0 L 2.015625 0 L 2.015625 -20.078125 L 17.734375 -20.078125 Z M 17.734375 -16.0625 "/></g></g></g></svg>